<svg xmlns="http://www.w3.org/2000/svg" xmlns:xlink="http://www.w3.org/1999/xlink" width="1920" zoomAndPan="magnify" viewBox="0 0 1440 1439.999935" height="1920" preserveAspectRatio="xMidYMid meet" version="1.0"><path fill="#61dafb" d="M 1431.40625 716.84375 C 1431.40625 622.628906 1313.429688 533.339844 1132.546875 477.972656 C 1174.289062 293.597656 1155.734375 146.910156 1073.992188 99.945312 C 1055.148438 88.929688 1033.117188 83.710938 1009.058594 83.710938 L 1009.058594 148.359375 C 1022.394531 148.359375 1033.117188 150.96875 1042.105469 155.898438 C 1081.527344 178.507812 1098.628906 264.609375 1085.296875 375.347656 C 1082.109375 402.597656 1076.890625 431.296875 1070.511719 460.578125 C 1013.695312 446.664062 951.664062 435.9375 886.441406 428.980469 C 847.308594 375.347656 806.726562 326.644531 765.851562 284.03125 C 860.351562 196.191406 949.054688 148.070312 1009.347656 148.070312 L 1009.347656 83.421875 C 929.632812 83.421875 825.277344 140.242188 719.761719 238.808594 C 614.246094 140.824219 509.890625 84.582031 430.175781 84.582031 L 430.175781 149.230469 C 490.179688 149.230469 579.171875 197.0625 673.671875 284.320312 C 633.089844 326.933594 592.507812 375.347656 553.953125 428.980469 C 488.441406 435.9375 426.40625 446.664062 369.59375 460.867188 C 362.925781 431.878906 357.996094 403.757812 354.519531 376.796875 C 340.894531 266.058594 357.707031 179.957031 396.839844 157.054688 C 405.535156 151.839844 416.84375 149.519531 430.175781 149.519531 L 430.175781 84.871094 C 405.828125 84.871094 383.796875 90.089844 364.664062 101.105469 C 283.210938 148.070312 264.945312 294.46875 306.980469 478.261719 C 126.675781 533.921875 9.277344 622.917969 9.277344 716.84375 C 9.277344 811.0625 127.257812 900.347656 308.136719 955.71875 C 266.398438 1140.09375 284.949219 1286.78125 366.695312 1333.742188 C 385.535156 1344.761719 407.566406 1349.976562 431.914062 1349.976562 C 511.632812 1349.976562 615.988281 1293.160156 721.5 1194.59375 C 827.015625 1292.578125 931.371094 1348.816406 1011.089844 1348.816406 C 1035.4375 1348.816406 1057.46875 1343.601562 1076.601562 1332.585938 C 1158.054688 1285.621094 1176.316406 1139.222656 1134.285156 955.429688 C 1314.007812 900.058594 1431.410156 810.769531 1431.410156 716.84375 Z M 1053.988281 523.484375 C 1043.265625 560.882812 1029.929688 599.4375 1014.855469 637.992188 C 1002.972656 614.800781 990.507812 591.609375 976.882812 568.417969 C 963.546875 545.226562 949.34375 522.613281 935.140625 500.582031 C 976.300781 506.671875 1016.015625 514.207031 1053.988281 523.484375 Z M 921.226562 832.222656 C 898.617188 871.359375 875.425781 908.464844 851.367188 942.964844 C 808.175781 946.734375 764.402344 948.761719 720.34375 948.761719 C 676.570312 948.761719 632.800781 946.734375 589.898438 943.253906 C 565.839844 908.757812 542.359375 871.941406 519.746094 833.09375 C 497.71875 795.117188 477.714844 756.5625 459.453125 717.714844 C 477.425781 678.867188 497.71875 640.023438 519.457031 602.046875 C 542.066406 562.910156 565.257812 525.804688 589.316406 491.304688 C 632.507812 487.539062 676.28125 485.507812 720.34375 485.507812 C 764.113281 485.507812 807.886719 487.539062 850.785156 491.015625 C 874.847656 525.515625 898.324219 562.332031 920.9375 601.175781 C 942.96875 639.152344 962.96875 677.710938 981.230469 716.554688 C 962.96875 755.402344 942.96875 794.246094 921.226562 832.222656 Z M 1014.855469 794.539062 C 1030.507812 833.382812 1043.84375 872.230469 1054.859375 909.914062 C 1016.886719 919.191406 976.882812 927.019531 935.429688 933.109375 C 949.632812 910.785156 963.839844 887.882812 977.171875 864.402344 C 990.507812 841.210938 1002.972656 817.730469 1014.855469 794.539062 Z M 720.921875 1103.855469 C 693.964844 1076.027344 667.003906 1045.007812 640.335938 1011.089844 C 666.425781 1012.25 693.09375 1013.117188 720.050781 1013.117188 C 747.300781 1013.117188 774.257812 1012.539062 800.636719 1011.089844 C 774.550781 1045.007812 747.589844 1076.027344 720.921875 1103.855469 Z M 505.253906 933.109375 C 464.089844 927.019531 424.378906 919.484375 386.40625 910.207031 C 397.128906 872.808594 410.464844 834.253906 425.539062 795.695312 C 437.421875 818.890625 449.886719 842.082031 463.511719 865.273438 C 477.136719 888.464844 491.050781 911.074219 505.253906 933.109375 Z M 719.472656 329.835938 C 746.429688 357.664062 773.390625 388.683594 800.058594 422.601562 C 773.96875 421.441406 747.300781 420.570312 720.34375 420.570312 C 693.09375 420.570312 666.136719 421.152344 639.757812 422.601562 C 665.84375 388.683594 692.804688 357.664062 719.472656 329.835938 Z M 504.964844 500.582031 C 490.761719 522.90625 476.554688 545.808594 463.222656 569.289062 C 449.886719 592.480469 437.421875 615.671875 425.539062 638.863281 C 409.886719 600.015625 396.550781 561.171875 385.535156 523.484375 C 423.507812 514.496094 463.511719 506.671875 504.964844 500.582031 Z M 242.625 863.53125 C 140.011719 819.757812 73.628906 762.359375 73.628906 716.84375 C 73.628906 671.332031 140.011719 613.640625 242.625 570.15625 C 267.554688 559.433594 294.804688 549.867188 322.921875 540.878906 C 339.445312 597.699219 361.1875 656.835938 388.144531 717.425781 C 361.476562 777.722656 340.023438 836.574219 323.792969 893.101562 C 295.09375 884.113281 267.847656 874.257812 242.625 863.53125 Z M 398.578125 1277.792969 C 359.15625 1255.183594 342.054688 1169.082031 355.386719 1058.34375 C 358.578125 1031.09375 363.792969 1002.394531 370.171875 973.113281 C 426.988281 987.027344 489.019531 997.753906 554.242188 1004.710938 C 593.375 1058.34375 633.960938 1107.046875 674.832031 1149.660156 C 580.332031 1237.5 491.628906 1285.621094 431.335938 1285.621094 C 418.292969 1285.332031 407.277344 1282.722656 398.578125 1277.792969 Z M 1086.164062 1056.894531 C 1099.789062 1167.632812 1082.976562 1253.734375 1043.84375 1276.632812 C 1035.148438 1281.851562 1023.84375 1284.171875 1010.507812 1284.171875 C 950.503906 1284.171875 861.511719 1236.339844 767.011719 1149.078125 C 807.59375 1106.464844 848.175781 1058.054688 886.730469 1004.421875 C 952.242188 997.464844 1014.277344 986.738281 1071.09375 972.535156 C 1077.757812 1001.8125 1082.976562 1029.933594 1086.164062 1056.894531 Z M 1197.769531 863.53125 C 1172.839844 874.257812 1145.589844 883.824219 1117.472656 892.8125 C 1100.949219 835.992188 1079.207031 776.855469 1052.25 716.265625 C 1078.917969 655.96875 1100.371094 597.117188 1116.601562 540.589844 C 1145.300781 549.574219 1172.546875 559.433594 1198.058594 570.15625 C 1300.675781 613.933594 1367.054688 671.332031 1367.054688 716.84375 C 1366.765625 762.359375 1300.382812 820.046875 1197.769531 863.53125 Z M 429.886719 84.582031 Z M 429.886719 84.582031 " fill-opacity="1" fill-rule="nonzero"/><path fill="#61dafb" d="M 852.527344 716.84375 C 852.527344 719.011719 852.472656 721.179688 852.367188 723.347656 C 852.257812 725.511719 852.101562 727.671875 851.886719 729.832031 C 851.675781 731.988281 851.410156 734.140625 851.089844 736.285156 C 850.773438 738.429688 850.402344 740.566406 849.980469 742.691406 C 849.558594 744.816406 849.082031 746.933594 848.554688 749.035156 C 848.027344 751.140625 847.449219 753.226562 846.820312 755.304688 C 846.191406 757.378906 845.511719 759.4375 844.78125 761.476562 C 844.050781 763.519531 843.269531 765.542969 842.441406 767.542969 C 841.613281 769.546875 840.734375 771.527344 839.804688 773.488281 C 838.878906 775.449219 837.90625 777.386719 836.882812 779.296875 C 835.859375 781.210938 834.792969 783.09375 833.679688 784.953125 C 832.5625 786.8125 831.402344 788.644531 830.199219 790.449219 C 828.996094 792.25 827.746094 794.023438 826.457031 795.765625 C 825.164062 797.507812 823.832031 799.214844 822.457031 800.890625 C 821.078125 802.566406 819.664062 804.207031 818.207031 805.816406 C 816.753906 807.421875 815.257812 808.992188 813.726562 810.523438 C 812.191406 812.058594 810.621094 813.550781 809.015625 815.007812 C 807.410156 816.464844 805.769531 817.878906 804.09375 819.253906 C 802.417969 820.632812 800.707031 821.964844 798.964844 823.257812 C 797.226562 824.546875 795.453125 825.796875 793.648438 827 C 791.847656 828.203125 790.015625 829.363281 788.15625 830.480469 C 786.296875 831.59375 784.410156 832.664062 782.5 833.683594 C 780.585938 834.707031 778.652344 835.679688 776.691406 836.609375 C 774.730469 837.535156 772.75 838.414062 770.746094 839.242188 C 768.746094 840.074219 766.722656 840.851562 764.679688 841.582031 C 762.640625 842.3125 760.582031 842.992188 758.507812 843.625 C 756.433594 844.253906 754.34375 844.832031 752.242188 845.355469 C 750.136719 845.882812 748.023438 846.359375 745.894531 846.78125 C 743.769531 847.207031 741.632812 847.574219 739.488281 847.894531 C 737.34375 848.210938 735.195312 848.476562 733.035156 848.691406 C 730.878906 848.902344 728.71875 849.0625 726.550781 849.167969 C 724.386719 849.273438 722.21875 849.328125 720.050781 849.328125 C 717.882812 849.328125 715.71875 849.273438 713.550781 849.167969 C 711.386719 849.0625 709.226562 848.902344 707.066406 848.691406 C 704.910156 848.476562 702.757812 848.210938 700.613281 847.894531 C 698.46875 847.574219 696.335938 847.207031 694.207031 846.78125 C 692.082031 846.359375 689.964844 845.882812 687.863281 845.355469 C 685.761719 844.832031 683.671875 844.253906 681.597656 843.625 C 679.523438 842.992188 677.464844 842.3125 675.421875 841.582031 C 673.382812 840.851562 671.359375 840.074219 669.355469 839.242188 C 667.355469 838.414062 665.371094 837.535156 663.414062 836.609375 C 661.453125 835.679688 659.515625 834.707031 657.605469 833.683594 C 655.691406 832.664062 653.808594 831.59375 651.945312 830.480469 C 650.085938 829.363281 648.257812 828.203125 646.453125 827 C 644.652344 825.796875 642.878906 824.546875 641.136719 823.257812 C 639.398438 821.964844 637.6875 820.632812 636.011719 819.253906 C 634.335938 817.878906 632.695312 816.464844 631.089844 815.007812 C 629.480469 813.550781 627.914062 812.058594 626.378906 810.523438 C 624.847656 808.992188 623.351562 807.421875 621.894531 805.816406 C 620.441406 804.207031 619.023438 802.566406 617.648438 800.890625 C 616.273438 799.214844 614.941406 797.507812 613.648438 795.765625 C 612.355469 794.023438 611.109375 792.25 609.90625 790.449219 C 608.699219 788.644531 607.539062 786.8125 606.425781 784.953125 C 605.3125 783.09375 604.242188 781.210938 603.222656 779.296875 C 602.199219 777.386719 601.222656 775.449219 600.296875 773.488281 C 599.371094 771.527344 598.492188 769.546875 597.664062 767.542969 C 596.832031 765.542969 596.054688 763.519531 595.324219 761.476562 C 594.59375 759.4375 593.914062 757.378906 593.28125 755.304688 C 592.652344 753.226562 592.074219 751.140625 591.550781 749.035156 C 591.023438 746.933594 590.546875 744.816406 590.125 742.691406 C 589.703125 740.566406 589.332031 738.429688 589.011719 736.285156 C 588.695312 734.140625 588.429688 731.988281 588.214844 729.832031 C 588.003906 727.671875 587.84375 725.511719 587.738281 723.347656 C 587.632812 721.179688 587.578125 719.011719 587.578125 716.84375 C 587.578125 714.675781 587.632812 712.511719 587.738281 710.34375 C 587.84375 708.179688 588.003906 706.015625 588.21875 703.859375 C 588.429688 701.703125 588.695312 699.550781 589.011719 697.40625 C 589.332031 695.261719 589.703125 693.125 590.125 691 C 590.546875 688.871094 591.023438 686.757812 591.550781 684.65625 C 592.074219 682.550781 592.652344 680.460938 593.28125 678.386719 C 593.914062 676.3125 594.59375 674.253906 595.324219 672.214844 C 596.054688 670.171875 596.832031 668.148438 597.664062 666.144531 C 598.492188 664.144531 599.371094 662.160156 600.296875 660.203125 C 601.222656 658.242188 602.199219 656.304688 603.222656 654.394531 C 604.242188 652.480469 605.3125 650.59375 606.425781 648.734375 C 607.539062 646.875 608.699219 645.042969 609.90625 643.242188 C 611.109375 641.4375 612.355469 639.667969 613.648438 637.925781 C 614.941406 636.183594 616.273438 634.476562 617.648438 632.800781 C 619.023438 631.125 620.441406 629.480469 621.894531 627.875 C 623.351562 626.269531 624.847656 624.699219 626.378906 623.167969 C 627.914062 621.632812 629.480469 620.136719 631.089844 618.683594 C 632.695312 617.226562 634.335938 615.8125 636.011719 614.433594 C 637.6875 613.058594 639.394531 611.726562 641.136719 610.433594 C 642.878906 609.144531 644.652344 607.894531 646.453125 606.691406 C 648.257812 605.484375 650.085938 604.324219 651.945312 603.210938 C 653.804688 602.097656 655.691406 601.027344 657.605469 600.007812 C 659.515625 598.984375 661.453125 598.007812 663.414062 597.082031 C 665.371094 596.15625 667.355469 595.277344 669.355469 594.449219 C 671.359375 593.617188 673.382812 592.835938 675.421875 592.105469 C 677.464844 591.375 679.523438 590.695312 681.597656 590.066406 C 683.671875 589.4375 685.761719 588.859375 687.863281 588.332031 C 689.964844 587.804688 692.082031 587.332031 694.207031 586.910156 C 696.335938 586.484375 698.46875 586.113281 700.613281 585.796875 C 702.757812 585.480469 704.910156 585.214844 707.066406 585 C 709.226562 584.789062 711.386719 584.628906 713.550781 584.523438 C 715.71875 584.417969 717.882812 584.363281 720.050781 584.363281 C 722.21875 584.363281 724.386719 584.417969 726.550781 584.523438 C 728.71875 584.628906 730.878906 584.789062 733.035156 585 C 735.195312 585.214844 737.34375 585.480469 739.488281 585.796875 C 741.632812 586.113281 743.769531 586.484375 745.894531 586.910156 C 748.023438 587.332031 750.136719 587.804688 752.242188 588.332031 C 754.34375 588.859375 756.433594 589.4375 758.507812 590.066406 C 760.582031 590.695312 762.640625 591.375 764.679688 592.105469 C 766.722656 592.835938 768.746094 593.617188 770.746094 594.449219 C 772.75 595.277344 774.730469 596.15625 776.691406 597.082031 C 778.652344 598.007812 780.585938 598.984375 782.5 600.007812 C 784.410156 601.027344 786.296875 602.097656 788.15625 603.210938 C 790.015625 604.324219 791.847656 605.484375 793.648438 606.691406 C 795.453125 607.894531 797.226562 609.144531 798.964844 610.433594 C 800.707031 611.726562 802.417969 613.058594 804.09375 614.433594 C 805.769531 615.8125 807.410156 617.226562 809.015625 618.683594 C 810.621094 620.136719 812.191406 621.632812 813.726562 623.167969 C 815.257812 624.699219 816.753906 626.269531 818.207031 627.875 C 819.664062 629.480469 821.078125 631.125 822.457031 632.800781 C 823.832031 634.476562 825.164062 636.183594 826.457031 637.925781 C 827.746094 639.667969 828.996094 641.4375 830.199219 643.242188 C 831.402344 645.042969 832.5625 646.875 833.679688 648.734375 C 834.792969 650.59375 835.859375 652.480469 836.882812 654.394531 C 837.90625 656.304688 838.878906 658.242188 839.804688 660.203125 C 840.734375 662.160156 841.613281 664.144531 842.441406 666.144531 C 843.269531 668.148438 844.050781 670.171875 844.78125 672.214844 C 845.511719 674.253906 846.191406 676.3125 846.820312 678.386719 C 847.449219 680.460938 848.027344 682.550781 848.554688 684.65625 C 849.082031 686.757812 849.558594 688.871094 849.980469 691 C 850.402344 693.125 850.773438 695.261719 851.089844 697.40625 C 851.410156 699.550781 851.675781 701.703125 851.886719 703.859375 C 852.101562 706.015625 852.257812 708.179688 852.367188 710.34375 C 852.472656 712.511719 852.527344 714.675781 852.527344 716.84375 Z M 852.527344 716.84375 " fill-opacity="1" fill-rule="nonzero"/></svg>